<?xml version="1.0" encoding="UTF-8"?>
<!DOCTYPE svg PUBLIC "-//W3C//DTD SVG 1.1//EN" "http://www.w3.org/Graphics/SVG/1.1/DTD/svg11.dtd">
<!-- Creator: CorelDRAW 2017 -->
<svg xmlns="http://www.w3.org/2000/svg" xml:space="preserve" width="1000px" height="1000px" version="1.1" style="shape-rendering:geometricPrecision; text-rendering:geometricPrecision; image-rendering:optimizeQuality; fill-rule:evenodd; clip-rule:evenodd"
viewBox="0 0 1000 1000"
 xmlns:xlink="http://www.w3.org/1999/xlink">
 <defs>
  <style type="text/css">
   <![CDATA[
    .fil36 {fill:#00AAD8}
    .fil32 {fill:#00C6ED}
    .fil34 {fill:#00D5F4}
    .fil30 {fill:#01E1FA}
    .fil4 {fill:#01EA0E}
    .fil5 {fill:#01EA0E}
    .fil11 {fill:#02991A}
    .fil8 {fill:#02D40C}
    .fil7 {fill:#02DB12}
    .fil2 {fill:#02E411}
    .fil37 {fill:#0384D4}
    .fil12 {fill:#03B816}
    .fil31 {fill:#03D6F4}
    .fil13 {fill:#048727}
    .fil10 {fill:#04A719}
    .fil33 {fill:#04B5E9}
    .fil35 {fill:#05A4E4}
    .fil9 {fill:#06C715}
    .fil6 {fill:#08D716}
    .fil39 {fill:#0A74B4}
    .fil38 {fill:#1282CA}
    .fil40 {fill:#17729B}
    .fil24 {fill:#DE5900}
    .fil23 {fill:#ED6B22}
    .fil25 {fill:#F4731F}
    .fil22 {fill:#F7751F}
    .fil20 {fill:#FB9501}
    .fil19 {fill:#FDAC05}
    .fil18 {fill:#FEB801}
    .fil21 {fill:#FF8A1A}
    .fil27 {fill:url(#id0)}
    .fil41 {fill:url(#id1)}
    .fil16 {fill:url(#id2)}
    .fil1 {fill:url(#id3)}
    .fil28 {fill:url(#id4)}
    .fil15 {fill:url(#id5)}
    .fil14 {fill:url(#id6)}
    .fil0 {fill:url(#id7)}
    .fil17 {fill:url(#id8)}
    .fil26 {fill:url(#id9)}
    .fil29 {fill:url(#id10)}
    .fil3 {fill:url(#id11)}
   ]]>
  </style>
  <linearGradient id="id0" gradientUnits="userSpaceOnUse" x1="344.36" y1="310.61" x2="310.73" y2="941.97">
   <stop offset="0" style="stop-opacity:1; stop-color:#026BA5"/>
   <stop offset="0.196078" style="stop-opacity:1; stop-color:#026BA5"/>
   <stop offset="0.4" style="stop-opacity:1; stop-color:#15E6FE"/>
   <stop offset="1" style="stop-opacity:1; stop-color:#026BA5"/>
  </linearGradient>
  <linearGradient id="id1" gradientUnits="userSpaceOnUse" x1="391.32" y1="675.89" x2="564.81" y2="683.3">
   <stop offset="0" style="stop-opacity:1; stop-color:#026BA5"/>
   <stop offset="0.490196" style="stop-opacity:1; stop-color:#0BA8D1"/>
   <stop offset="1" style="stop-opacity:1; stop-color:#15E6FE"/>
  </linearGradient>
  <linearGradient id="id2" gradientUnits="userSpaceOnUse" x1="587.79" y1="135.48" x2="816.42" y2="439.19">
   <stop offset="0" style="stop-opacity:1; stop-color:#FE4F1A"/>
   <stop offset="1" style="stop-opacity:1; stop-color:#FEB801"/>
  </linearGradient>
  <linearGradient id="id3" gradientUnits="userSpaceOnUse" x1="724.61" y1="874.77" x2="962.1" y2="646.32">
   <stop offset="0" style="stop-opacity:1; stop-color:#06802D"/>
   <stop offset="0.490196" style="stop-opacity:1; stop-color:#06AD27"/>
   <stop offset="1" style="stop-opacity:1; stop-color:#07DB21"/>
  </linearGradient>
  <linearGradient id="id4" gradientUnits="userSpaceOnUse" xlink:href="#id1" x1="97.53" y1="576.71" x2="180" y2="894.19">
  </linearGradient>
  <linearGradient id="id5" gradientUnits="userSpaceOnUse" x1="256" y1="64.22" x2="951.06" y2="355.63">
   <stop offset="0" style="stop-opacity:1; stop-color:#FE4F1A"/>
   <stop offset="0.478431" style="stop-opacity:1; stop-color:#FEB602"/>
   <stop offset="1" style="stop-opacity:1; stop-color:#FE5918"/>
  </linearGradient>
  <linearGradient id="id6" gradientUnits="userSpaceOnUse" x1="667.43" y1="648.23" x2="589.76" y2="424.55">
   <stop offset="0" style="stop-opacity:1; stop-color:#06802D"/>
   <stop offset="1" style="stop-opacity:1; stop-color:#07DB21"/>
  </linearGradient>
  <linearGradient id="id7" gradientUnits="userSpaceOnUse" x1="896.36" y1="398.46" x2="701.01" y2="881.55">
   <stop offset="0" style="stop-opacity:1; stop-color:#06802D"/>
   <stop offset="0.168627" style="stop-opacity:1; stop-color:#06AD27"/>
   <stop offset="1" style="stop-opacity:1; stop-color:#07DB21"/>
  </linearGradient>
  <linearGradient id="id8" gradientUnits="userSpaceOnUse" xlink:href="#id2" x1="402.28" y1="252.17" x2="139.39" y2="338.28">
  </linearGradient>
  <linearGradient id="id9" gradientUnits="userSpaceOnUse" xlink:href="#id2" x1="450.92" y1="372.82" x2="362.96" y2="539.41">
  </linearGradient>
  <linearGradient id="id10" gradientUnits="userSpaceOnUse" xlink:href="#id0" x1="267.05" y1="694.61" x2="467.46" y2="988.97">
  </linearGradient>
  <linearGradient id="id11" gradientUnits="userSpaceOnUse" xlink:href="#id6" x1="711.24" y1="582.82" x2="897.27" y2="486.8">
  </linearGradient>
 </defs>
 <g id="Слой_x0020_1">
  <metadata id="CorelCorpID_0Corel-Layer"/>
  <g id="_2619824109072">
   <g>
    <path class="fil0" d="M639.6 684.72c14.24,16.58 57.6,19.59 78.17,14.52 23.27,-5.7 47.93,-14.67 69.64,-29.51 20.29,-13.88 40.3,-29.63 57.9,-46.57 37.36,-45.99 71.83,-83.45 73.72,-145.57 0.11,-1.11 -0.56,-4.42 -0.55,-4.47 27.14,42.27 31.48,120.36 30.25,150.66 -13.38,99.26 -81.13,206.75 -153.67,245.68 -118.55,63.64 -255.97,43.93 -364.36,-29.91 -1.19,-1.35 -7.22,-6.11 -8.92,-7.31 -12.6,-8.94 -10.99,-9.39 -22.47,-19.71 -3.58,-3.22 -2.25,-1.34 -4.72,-3.51 -11.94,-10.53 -16.06,-17.56 -24.83,-27.97 -1.97,-2.33 -3.01,-3.03 -4.34,-4.8 -2.54,-3.39 -0.8,-2.21 -4.33,-4.88 -0.22,-0.17 -0.55,-0.4 -0.87,-0.52 6.87,14.23 13.11,24.52 21.05,36.59 8.83,13.43 20.93,30.3 32.41,40.61 4.92,4.42 7.94,9.29 16.05,15.52 13.94,10.73 17.96,15.93 35.49,28.39 0.63,0.45 1.5,1.05 1.89,1.32l6.8 4.54c0.94,0.62 1.09,0.83 1.88,1.37l28.13 15.24c10.31,3.75 23.64,10.72 36.74,14.57 5.75,1.7 11.59,4.13 17.12,5.41l13.2 3.28c3.25,0.67 3.65,0.96 6.87,2.07 87.42,15.09 161,2.73 237.63,-43.67 28.86,-17.48 59.62,-46.01 80.43,-73.08 24.54,-31.93 41.83,-68.03 53.91,-106.2 4.31,-12.29 12.45,-58.88 12.28,-70.49l0.37 -32.3c-0.94,-45.78 -24.1,-126.67 -52.22,-163.77 -8.53,-11.26 -13.43,-13.92 -27.14,-19.16 -2.58,-0.98 -13.19,-3.67 -15.28,-3.87l-8.16 -0.34c-3.39,-0.21 -4.91,-0.12 -8.46,0.18 -2.28,0.19 -15.79,1.29 -16.44,1.17 -3.69,0.8 -3.46,-0.19 -6.26,0.79 -3.47,1.22 -3.57,2.36 -4.14,3.57 2.62,1.93 3.15,0.83 7.24,1.8 15.67,3.74 30.73,12.44 38.92,26.85 3.3,5.79 6.79,17.68 6.51,23.17 -0.4,7.8 4.07,10.16 -3.28,32.84 -14.42,44.51 -100.54,134.59 -124.03,137.59 -6.96,3.6 -7.21,5.12 -15.49,11.17 14.98,-19.69 15.46,-27.84 15.89,-52.84 0.14,-8.51 0.42,-14.09 -0.98,-22.82 -23.13,-159.01 -159.78,-240.58 -171.8,-228.17 -7.32,4.28 -89.04,55.3 -43.02,161.28 11.52,26.53 35.64,45.48 72.14,71.99 16.69,12.12 50.96,67.02 33.13,89.27z"/>
    <path class="fil1" d="M723.34 910.05c58.34,-15.19 120.93,-60.44 158.33,-106.89 57.1,-70.93 111.17,-208.71 36.81,-330.04 69.57,176.58 -18.36,320.03 -174.36,393.17 -131.25,57.83 -235.52,34.27 -322.51,-34.17 67.76,97.92 232.46,102.29 301.73,77.93z"/>
    <path class="fil2" d="M608.24 799.89c2.55,-2.14 5.13,-4.89 7.68,-8.43 4.38,-6.06 7,-16.75 6.82,-24.84 -0.1,-4.86 -1.13,-5.06 -2.2,-9.94 -0.5,-2.24 -1.05,-4.24 -1.68,-6.04 -9.92,-17.65 -31.68,-24.61 -49.28,-15.53 -18.01,9.3 -24.85,31.87 -15.27,50.42 9.57,18.55 31.93,26.05 49.94,16.76 1.4,-0.72 2.73,-1.52 3.99,-2.4z"/>
    <path class="fil3" d="M733.27 666.52c231.17,-120.21 146.59,-252.71 86.99,-236.21 141.85,66.69 -31.78,188.02 -86.99,236.21z"/>
    <ellipse class="fil4" transform="matrix(0.862713 -0.445279 0.445279 0.862713 504.299 812.354)" rx="43.23" ry="44.53"/>
    <ellipse class="fil5" transform="matrix(0.754274 -0.38931 0.38931 0.754274 586.916 768.699)" rx="43.23" ry="44.53"/>
    <ellipse class="fil5" transform="matrix(0.754274 -0.38931 0.38931 0.754274 588.188 849.432)" rx="43.23" ry="44.53"/>
    <ellipse class="fil6" transform="matrix(0.640335 -0.330502 0.348638 0.675475 657.689 754.461)" rx="43.23" ry="44.53"/>
    <ellipse class="fil6" transform="matrix(0.580659 -0.2997 0.316147 0.612523 719.626 741.518)" rx="43.23" ry="44.53"/>
    <ellipse class="fil7" transform="matrix(0.580659 -0.2997 0.316147 0.612523 726.52 823.567)" rx="43.23" ry="44.53"/>
    <ellipse class="fil2" transform="matrix(0.681339 -0.147275 0.174213 0.805961 662.034 839.474)" rx="43.23" ry="44.53"/>
    <ellipse class="fil8" transform="matrix(0.532142 -0.00675361 0.00874745 0.689244 832.839 759.521)" rx="43.23" ry="44.53"/>
    <ellipse class="fil8" transform="matrix(0.556351 -0.00706086 0.0091454 0.7206 782.73 796.953)" rx="43.23" ry="44.53"/>
    <ellipse class="fil9" transform="matrix(0.556351 -0.00706086 0.0091454 0.7206 777.267 720.76)" rx="43.23" ry="44.53"/>
    <ellipse class="fil9" transform="matrix(0.483263 0.11345 -0.0790851 0.697556 825.477 684.027)" rx="43.23" ry="44.53"/>
    <ellipse class="fil10" transform="matrix(0.382423 0.119151 -0.0285384 0.58759 864.667 646.602)" rx="43.23" ry="44.53"/>
    <ellipse class="fil10" transform="matrix(0.338285 0.105399 -0.0252446 0.519772 905.444 660.5)" rx="43.23" ry="44.53"/>
    <ellipse class="fil11" transform="matrix(0.290784 0.164462 -0.0743884 0.500362 924.062 603.814)" rx="43.23" ry="44.53"/>
    <ellipse class="fil12" transform="matrix(0.354901 0.185714 -0.133311 0.572979 873.483 715.441)" rx="43.23" ry="44.53"/>
    <ellipse class="fil11" transform="matrix(0.290784 0.164462 -0.0743884 0.500362 894.964 601.318)" rx="43.23" ry="44.53"/>
    <ellipse class="fil13" transform="matrix(0.274349 0.183109 -0.090034 0.490386 924.69 548.928)" rx="43.23" ry="44.53"/>
    <path class="fil14" d="M651.77 668.98c57.09,-15.69 89.62,-99.73 65.01,-152.15 -34.29,-73.08 -91.98,-121.04 -136.5,-147.61 -69.46,55.57 -59.11,115.22 -36.08,157.99 55.86,69.55 90.83,40.98 107.57,141.77z"/>
   </g>
   <path class="fil15" d="M550.78 352.13c6.3,-20.81 -14.36,-58.83 -29.62,-73.39 -17.23,-16.49 -37.95,-32.39 -62.02,-42.68 -22.5,-9.62 -46.42,-17.99 -70.06,-23.71 -58.58,-6.77 -108.47,-15.68 -161.64,15.95 -0.99,0.5 -3.4,2.84 -3.46,2.85 20.98,-45.39 84.22,-90.79 110.32,-105.96 90.49,-41.85 216.96,-42.45 288.44,-2.37 116.83,65.5 173.77,191.42 169.73,321.9 -0.49,1.73 -1.26,9.34 -1.36,11.4 -0.77,15.36 -2.01,14.26 -4.53,29.42 -0.79,4.72 0.08,2.6 -0.43,5.83 -2.45,15.65 -6.15,22.87 -10.2,35.81 -0.91,2.89 -0.93,4.14 -1.71,6.21 -1.49,3.94 -1.43,1.85 -1.79,6.24 -0.02,0.28 -0.03,0.68 0.03,1.01 8.28,-13.38 13.58,-24.12 19.47,-37.24 6.55,-14.6 14.25,-33.78 16.76,-48.93 1.08,-6.5 3.56,-11.63 4.46,-21.77 1.54,-17.45 3.76,-23.6 4.85,-44.99 0.04,-0.76 0.07,-1.81 0.1,-2.29l0.17 -8.13c0.02,-1.12 0.12,-1.36 0.14,-2.31l-2.24 -31.77c-2.37,-10.66 -3.64,-25.58 -7.41,-38.64 -1.66,-5.74 -2.73,-11.94 -4.62,-17.27l-4.3 -12.83c-1.18,-3.09 -1.15,-3.57 -1.94,-6.88 -34.09,-81.46 -83.81,-136.63 -163.75,-176.15 -30.1,-14.89 -70.5,-25.45 -104.36,-28.45 -39.93,-3.53 -79.48,1.26 -117.99,11.53 -12.62,2.96 -56.09,21.04 -65.75,27.4l-27.31 16.95c-37.93,25.28 -93.46,87.98 -109.57,131.42 -4.9,13.19 -4.51,18.73 -1.57,33.03 0.55,2.7 3.97,13.04 4.91,14.9l4.09 7.04c1.63,2.95 2.52,4.18 4.66,7 1.39,1.82 9.53,12.57 9.78,13.18 2.64,2.67 1.69,3.01 4.01,4.83 2.88,2.26 3.9,1.73 5.21,1.57 0.22,-3.23 -0.99,-3.09 -2.36,-7.04 -5.23,-15.16 -5.99,-32.46 1.73,-47.04 3.1,-5.86 11.22,-15.15 15.98,-17.85 6.76,-3.84 6.35,-8.85 29.33,-14.81 45.08,-11.7 166.75,12.43 181.83,30.55 6.75,3.92 8.16,3.32 17.67,7.03 -24.55,-2.04 -31.65,1.91 -52.86,14.92 -7.22,4.43 -12.06,7.19 -18.64,13.03 -121.13,104.45 -116.54,262.8 -99.69,266.25 7.51,3.86 94.04,45.19 158.41,-50.12 16.11,-23.86 19.13,-54.25 21.86,-99.07 1.25,-20.5 29.02,-78.62 57.24,-75.56z"/>
   <path class="fil16" d="M695.18 161.34c-43.96,-40.87 -115.42,-69.22 -174.41,-75.77 -90.09,-10.02 -234.69,18.27 -296.79,145.58 111.06,-152.84 278.51,-155.72 423.34,-63.86 118.74,79.27 154.72,179.41 143.78,289.04 45.97,-109.25 -38.43,-249.87 -95.92,-294.99z"/>
   <path class="fil17" d="M485.4 283.23c-224.55,-129.8 -290.56,12.07 -244.83,53.28 -19.87,-154.76 174.85,-73.87 244.83,-53.28z"/>
   <ellipse class="fil18" transform="matrix(-0.83519 -0.486192 0.486192 -0.83519 730.285 397.479)" rx="43.23" ry="44.53"/>
   <ellipse class="fil18" transform="matrix(-0.73021 -0.42508 0.42508 -0.73021 649.454 351.461)" rx="43.23" ry="44.53"/>
   <ellipse class="fil18" transform="matrix(-0.73021 -0.42508 0.42508 -0.73021 716.554 307.22)" rx="43.23" ry="44.53"/>
   <ellipse class="fil19" transform="matrix(-0.619906 -0.360868 0.380671 -0.653925 599.652 299.656)" rx="43.23" ry="44.53"/>
   <ellipse class="fil20" transform="matrix(-0.562134 -0.327237 0.345194 -0.592982 555.664 254.577)" rx="43.23" ry="44.53"/>
   <ellipse class="fil20" transform="matrix(-0.562134 -0.327237 0.345194 -0.592982 620.864 204.912)" rx="43.23" ry="44.53"/>
   <ellipse class="fil19" transform="matrix(-0.488002 -0.493276 0.5835 -0.577261 668.704 250.546)" rx="43.23" ry="44.53"/>
   <ellipse class="fil21" transform="matrix(-0.290239 -0.44316 0.573992 -0.375925 510.238 149.899)" rx="43.23" ry="44.53"/>
   <ellipse class="fil21" transform="matrix(-0.303443 -0.463321 0.600105 -0.393027 568.461 171.951)" rx="43.23" ry="44.53"/>
   <ellipse class="fil21" transform="matrix(-0.303443 -0.463321 0.600105 -0.393027 507.413 217.283)" rx="43.23" ry="44.53"/>
   <ellipse class="fil22" transform="matrix(-0.163181 -0.466403 0.62794 -0.306628 450.792 196.451)" rx="43.23" ry="44.53"/>
   <ellipse class="fil23" transform="matrix(-0.10447 -0.384789 0.508585 -0.29026 398.413 183.561)" rx="43.23" ry="44.53"/>
   <ellipse class="fil23" transform="matrix(-0.0924121 -0.340378 0.449886 -0.256759 388.276 141.894)" rx="43.23" ry="44.53"/>
   <ellipse class="fil24" transform="matrix(-0.0174226 -0.332082 0.45987 -0.20512 330.728 156.576)" rx="43.23" ry="44.53"/>
   <ellipse class="fil25" transform="matrix(-0.0338668 -0.397277 0.552346 -0.194482 451.494 139.348)" rx="43.23" ry="44.53"/>
   <ellipse class="fil24" transform="matrix(-0.0174226 -0.332082 0.45987 -0.20512 344.193 182.341)" rx="43.23" ry="44.53"/>
   <ellipse class="fil24" transform="matrix(0.00702224 -0.328255 0.459861 -0.186649 284.311 185.4)" rx="43.23" ry="44.53"/>
   <path class="fil26" d="M531.05 350.34c-43.7,-39.54 -131.65,-21.91 -162.51,26.78 -43.01,67.87 -52.43,141.95 -50.93,193.54 83.8,28.6 128.35,-11.99 151.94,-54.2 28.52,-84.09 -14.17,-98.17 61.5,-166.12z"/>
   <path class="fil27" d="M303.9 595.59c-21.32,4.27 -45.08,40.44 -50.7,60.76 -6.41,22.98 -10.64,48.75 -8.34,74.83 2.15,24.38 6.06,49.41 12.18,72.95 21.69,54.84 37.4,103.02 90.39,134.95 0.91,0.63 4.11,1.66 4.15,1.7 -49.92,2.95 -119.81,-31.36 -145.5,-47.2 -79.62,-60.01 -139.87,-171.21 -138.3,-253.14 2.57,-133.91 86.68,-243.57 203.61,-301.63 1.75,-0.37 8.82,-3.29 10.69,-4.17 13.9,-6.58 13.51,-4.96 28.06,-9.9 4.54,-1.54 2.26,-1.3 5.35,-2.38 14.96,-5.23 23.06,-5.38 36.38,-7.92 2.98,-0.56 4.09,-1.13 6.28,-1.42 4.18,-0.55 2.31,0.39 6.35,-1.37 0.25,-0.11 0.61,-0.29 0.87,-0.5 -15.7,-0.98 -27.67,-0.58 -42.01,0.42 -15.97,1.12 -36.51,3.39 -51.05,8.33 -6.24,2.11 -11.93,2.36 -21.3,6.35 -16.11,6.88 -22.57,7.83 -41.94,16.97 -0.7,0.32 -1.64,0.79 -2.07,0.99l-7.25 3.69c-1,0.51 -1.25,0.54 -2.1,0.96l-26.95 16.99c-8.28,7.12 -20.82,15.28 -30.55,24.78 -4.28,4.17 -9.24,8.04 -13.05,12.22l-9.28 9.85c-2.16,2.5 -2.61,2.7 -5.14,4.96 -55.72,68.51 -80.86,138.39 -77.95,227.52 1.09,33.57 10.85,74.17 24.2,105.43 15.74,36.86 38.64,69.46 65.88,98.55 8.57,9.74 45.03,39.52 55.19,45.03l27.85 16.07c40.19,21.5 121.68,40.84 167.58,34.53 13.94,-1.92 18.64,-4.87 29.86,-14.22 2.12,-1.76 9.62,-9.66 10.81,-11.36l4.28 -6.93c1.83,-2.83 2.49,-4.2 3.97,-7.42 0.95,-2.08 6.57,-14.33 6.99,-14.84 1.11,-3.59 1.86,-2.91 2.37,-5.82 0.64,-3.61 -0.31,-4.25 -1.08,-5.33 -2.95,1.33 -2.25,2.33 -5.09,5.4 -10.89,11.78 -25.78,20.61 -42.27,20.69 -6.64,0.04 -18.66,-2.73 -23.29,-5.65 -6.57,-4.15 -10.79,-1.42 -26.9,-18.86 -31.6,-34.22 -67.78,-152.87 -58.94,-174.71 0.27,-7.8 -0.92,-8.76 -2.14,-18.9 9.79,22.6 16.62,27 38.11,39.55 7.32,4.28 12.03,7.24 20.29,10.28 149.27,57.45 286.68,-21.37 281.77,-37.85 -0.15,-8.44 -4.58,-104.24 -118.99,-115.97 -28.64,-2.93 -56.85,8.76 -97.65,27.51 -18.66,8.58 -83,11.55 -93.63,-14.77z"/>
   <path class="fil28" d="M67.53 558.4c-15.26,58.04 -6.51,134.42 15.57,189.52 33.71,84.14 126.93,198.24 268.48,192.86 -187.17,-25.72 -268.78,-171.96 -256.2,-343.01 13.8,-142.1 85.08,-221.1 186.89,-263.22 -118.02,11.06 -202.11,151.86 -214.74,223.85z"/>
   <path class="fil2" d="M219.25 512.22c0.61,3.26 1.74,6.84 3.56,10.78 3.13,6.75 11.13,14.24 18.24,18.03 4.26,2.28 4.94,1.48 9.7,2.93 2.19,0.67 4.19,1.16 6.06,1.49 20.15,0 36.81,-15.49 37.5,-35.19 0.72,-20.16 -15.54,-37.1 -36.31,-37.84 -20.76,-0.73 -38.18,15.01 -38.89,35.17 -0.06,1.57 -0.01,3.11 0.14,4.63z"/>
   <path class="fil29" d="M274.03 685.76c-8.38,259.22 147.85,250.42 162.59,190.65 -127.04,90.59 -147.69,-119.24 -162.59,-190.65z"/>
   <ellipse class="fil30" transform="matrix(-0.0341787 0.965793 -0.965793 -0.0341787 259.106 415.944)" rx="43.23" ry="44.53"/>
   <ellipse class="fil31" transform="matrix(-0.0298826 0.844397 -0.844397 -0.0298826 256.712 508.925)" rx="43.23" ry="44.53"/>
   <ellipse class="fil31" transform="matrix(-0.0298826 0.844397 -0.844397 -0.0298826 186.028 470.668)" rx="43.23" ry="44.53"/>
   <ellipse class="fil32" transform="matrix(-0.0253686 0.716844 -0.756182 -0.0267608 234.564 577.287)" rx="43.23" ry="44.53"/>
   <ellipse class="fil33" transform="matrix(-0.0230044 0.650037 -0.685709 -0.0242668 215.6 637.349)" rx="43.23" ry="44.53"/>
   <ellipse class="fil33" transform="matrix(-0.0230044 0.650037 -0.685709 -0.0242668 141.033 603.329)" rx="43.23" ry="44.53"/>
   <ellipse class="fil34" transform="matrix(-0.204371 0.663098 -0.784384 -0.241753 158.667 539.61)" rx="43.23" ry="44.53"/>
   <ellipse class="fil35" transform="matrix(-0.253582 0.465108 -0.60242 -0.328446 144.779 726.822)" rx="43.23" ry="44.53"/>
   <ellipse class="fil36" transform="matrix(-0.265118 0.486268 -0.629826 -0.343388 136.724 665.086)" rx="43.23" ry="44.53"/>
   <ellipse class="fil36" transform="matrix(-0.265118 0.486268 -0.629826 -0.343388 205.511 697.492)" rx="43.23" ry="44.53"/>
   <ellipse class="fil37" transform="matrix(-0.334069 0.364085 -0.566812 -0.408723 213.885 757.24)" rx="43.23" ry="44.53"/>
   <ellipse class="fil38" transform="matrix(-0.289852 0.273792 -0.496022 -0.311243 227.257 809.498)" rx="43.23" ry="44.53"/>
   <ellipse class="fil38" transform="matrix(-0.256399 0.242192 -0.438773 -0.275321 195.315 838.11)" rx="43.23" ry="44.53"/>
   <ellipse class="fil39" transform="matrix(-0.284497 0.172172 -0.397967 -0.308506 235.433 881.904)" rx="43.23" ry="44.53"/>
   <ellipse class="fil37" transform="matrix(-0.334201 0.217454 -0.43226 -0.395046 163.218 783.586)" rx="43.23" ry="44.53"/>
   <ellipse class="fil39" transform="matrix(-0.284497 0.172172 -0.397967 -0.308506 251.786 857.868)" rx="43.23" ry="44.53"/>
   <ellipse class="fil40" transform="matrix(-0.292667 0.148818 -0.381682 -0.31722 282.759 909.209)" rx="43.23" ry="44.53"/>
   <path class="fil41" d="M311.63 613.82c-14.21,57.2 42.86,126.4 100.35,130.61 80.14,5.87 149.89,-20.81 194.65,-46.5 -14.36,-87.38 -71.18,-107.47 -119.52,-108.34 -87.59,14.57 -79.85,58.85 -175.48,24.23z"/>
  </g>
 </g>
</svg>
